OneDof_KneeFl_states
version=1
nRows=15
nColumns=19
inDegrees=yes

# SIMM Motion File Header:
name OneDof_KneeFl_states
datacolumns 19
datarows 15
otherdata 1
range 0.00000000 0.47204535
endheader
time	/jointset/hip_r/hip_flexion_r/value	/jointset/hip_r/hip_flexion_r/speed	/jointset/walker_knee_r/knee_angle_r/value	/jointset/walker_knee_r/knee_angle_r/speed	/jointset/patellofemoral_r/knee_angle_r_beta/value	/jointset/patellofemoral_r/knee_angle_r_beta/speed	/jointset/ankle_r/ankle_angle_r/value	/jointset/ankle_r/ankle_angle_r/speed	/forceset/bflh_r/normalized_tendon_force	/forceset/bfsh_r/normalized_tendon_force	/forceset/gaslat_r/normalized_tendon_force	/forceset/gasmed_r/normalized_tendon_force	/forceset/recfem_r/normalized_tendon_force	/forceset/semimem_r/normalized_tendon_force	/forceset/semiten_r/normalized_tendon_force	/forceset/vasint_r/normalized_tendon_force	/forceset/vaslat_r/normalized_tendon_force	/forceset/vasmed_r/normalized_tendon_force
      0.00000000	      0.00000000	      0.00000000	      1.21370652	      5.28438121	      0.02118317	      0.09222985	      0.00000000	      0.00000000	      0.01089587	      0.06514007	      0.06463638	      0.04378920	      0.02451531	      0.04417977	      0.03341272	      0.01522695	      0.01349131	      0.01394227
      0.01000000	     -0.00000000	      0.00000000	      1.24650804	      1.27828628	      0.02175567	      0.02231030	      0.00000000	      0.00000000	      0.01089587	      0.06514007	      0.06463638	      0.04378920	      0.02451531	      0.04417977	      0.03341272	      0.01522695	      0.01349131	      0.01394227
      0.06000000	      0.00000000	      0.00000000	      0.81314238	    -18.56507624	      0.01419201	     -0.32402171	      0.00000000	      0.00000000	      0.01089587	      0.06514007	      0.06463638	      0.04378920	      0.02451531	      0.04417977	      0.03341272	      0.01522695	      0.01349131	      0.01394227
      0.08946326	      0.00000000	      0.00000000	      0.09547387	    -30.13728884	      0.00166633	     -0.52599492	      0.00000000	      0.00000000	      0.01089587	      0.06514007	      0.06463638	      0.04378920	      0.02451531	      0.04417977	      0.03341272	      0.01522695	      0.01349131	      0.01394227
      0.10136830	      0.00000000	      0.00000000	     -0.29109256	    -34.81071429	     -0.00508052	     -0.60756158	      0.00000000	      0.00000000	      0.01089587	      0.06514007	      0.06463638	      0.04378920	      0.02451531	      0.04417977	      0.03341272	      0.01522695	      0.01349131	      0.01394227
      0.11327334	      0.00000000	      0.00000000	     -0.73359048	    -39.53733238	     -0.01280357	     -0.69005663	      0.00000000	      0.00000000	      0.01089587	      0.06514007	      0.06463638	      0.04378920	      0.02451531	      0.04417977	      0.03341272	      0.01522695	      0.01349131	      0.01394227
      0.17279853	      0.00000000	      0.00000000	     -3.81581656	    -64.44795656	     -0.06659856	     -1.12482904	      0.00000000	      0.00000000	      0.01089587	      0.06514007	      0.06463638	      0.04378920	      0.02451531	      0.04417977	      0.03341272	      0.01522695	      0.01349131	      0.01394227
      0.22070216	      0.00000000	     -0.00000000	     -7.43176008	    -87.01695921	     -0.12970868	     -1.51873244	      0.00000000	     -0.00000000	      0.01089587	      0.06514007	      0.06463638	      0.04378920	      0.02451531	      0.04417977	      0.03341272	      0.01522695	      0.01349131	      0.01394227
      0.26860578	      0.00000000	      0.00000000	    -12.21281773	   -113.37569139	     -0.21315388	     -1.97877911	      0.00000000	     -0.00000000	      0.01089587	      0.06514007	      0.06463638	      0.04378920	      0.02451531	      0.04417977	      0.03341272	      0.01522695	      0.01349131	      0.01394227
      0.31650941	      0.00000000	      0.00000000	    -18.38627503	   -145.54497901	     -0.32090104	     -2.54023909	      0.00000000	     -0.00000000	      0.01089587	      0.06514007	      0.06463638	      0.04378920	      0.02451531	      0.04417977	      0.03341272	      0.01522695	      0.01349131	      0.01394227
      0.36441303	      0.00000000	      0.00000000	    -26.29331364	   -186.27594970	     -0.45890489	     -3.25112864	      0.00000000	     -0.00000000	      0.01089587	      0.06514007	      0.06463638	      0.04378920	      0.02451531	      0.04417977	      0.03341272	      0.01522695	      0.01349131	      0.01394227
      0.39794340	      0.00000000	      0.00000000	    -33.11488503	   -221.69183461	     -0.57796378	     -3.86925244	     -0.00000000	     -0.00000000	      0.01089587	      0.06514007	      0.06463638	      0.04378920	      0.02451531	      0.04417977	      0.03341272	      0.01522695	      0.01349131	      0.01394227
      0.42623248	      0.00000000	      0.00000000	    -39.87293177	   -256.95730702	     -0.69591394	     -4.48475104	     -0.00000000	     -0.00000000	      0.01089587	      0.06514007	      0.06463638	      0.04378920	      0.02451531	      0.04417977	      0.03341272	      0.01522695	      0.01349131	      0.01394227
      0.44913891	      0.00000000	      0.00000000	    -46.12305683	   -289.28868041	     -0.80499920	     -5.04903996	     -0.00000000	     -0.00000000	      0.01089587	      0.06514007	      0.06463638	      0.04378920	      0.02451531	      0.04417977	      0.03341272	      0.01522695	      0.01349131	      0.01394227
      0.47204535	      0.00000000	      0.00000000	    -53.14704978	   -324.30568008	     -0.92759101	     -5.66020190	     -0.00000000	     -0.00000000	      0.01089587	      0.06514007	      0.06463638	      0.04378920	      0.02451531	      0.04417977	      0.03341272	      0.01522695	      0.01349131	      0.01394227
